# xmcd CD database file
#
# Track frame offsets:
#	150
#	20132
#	45696
#	71738
#	92826
#	114107
#	129248
#	150039
#	173942
#	194468
#	242362
#
# Disc length: 3237 seconds
#
# Revision: 0
# Processed by: cddbd v1.5.2PL0 Copyright (c) Steve Scherf et al.
# Submitted via: CDex 1.70beta2
#
DISCID=840ca30b
DTITLE=Lifescapes - Unwind
DYEAR=2009
DGENRE=New Age
TTITLE0=Lighter Than Clouds
TTITLE1=Sleeping Ocean
TTITLE2=Endless Highway
TTITLE3=Light On The Water
TTITLE4=The Stars Are Near
TTITLE5=Twighlight
TTITLE6=Watercolours
TTITLE7=Deep Is The Sky
TTITLE8=Blankets Of Rain
TTITLE9=The River Dreams Of The Sea
TTITLE10=Inner Peace for Busy People (PDF)
EXTD=YEAR: 2009
EXTT0=
EXTT1=
EXTT2=
EXTT3=
EXTT4=
EXTT5=
EXTT6=
EXTT7=
EXTT8=
EXTT9=
EXTT10=
PLAYORDER=
